<svg preserveAspectRatio="none" width="100%" height="100%" overflow="visible" style="display: block;" viewBox="0 0 16 12" fill="none" xmlns="http://www.w3.org/2000/svg">
<g id="Wi-Fi">
<path id="Wi-Fi_2" fill-rule="evenodd" clip-rule="evenodd" d="M9.84862 9.21527C9.90962 9.15461 9.94262 9.07094 9.94095 8.98394C9.93962 8.89727 9.90262 8.81494 9.83962 8.75694C8.58695 7.67461 6.75195 7.67461 5.49895 8.75694C5.43595 8.81494 5.39895 8.89727 5.39762 8.98394C5.39562 9.07061 5.42895 9.15427 5.48962 9.21527L7.45162 11.2373C7.50929 11.2966 7.58762 11.3299 7.66929 11.3299C7.75129 11.3299 7.82929 11.2966 7.88695 11.2373L9.84862 9.21527ZM7.6691 6.42224C8.8651 6.4219 10.0181 6.8759 10.9044 7.6959C11.0241 7.81224 11.2131 7.80957 11.3298 7.69024L12.4641 6.5199C12.5238 6.45824 12.5571 6.37524 12.5561 6.28857C12.5551 6.2019 12.5204 6.11957 12.4594 6.05924C9.7601 3.4949 5.5801 3.4949 2.8811 6.05924C2.8201 6.11957 2.78543 6.20224 2.78476 6.28857C2.78376 6.37524 2.81676 6.45857 2.87676 6.5199L4.01043 7.69024C4.12743 7.80957 4.3161 7.81224 4.43643 7.6959C5.3221 6.87657 6.4741 6.42257 7.6691 6.42224V6.42224ZM7.66887 2.61454C9.84521 2.61454 11.9385 3.46887 13.5159 5.00021C13.6342 5.11854 13.8245 5.11721 13.9412 4.99687L15.0769 3.82654C15.1359 3.76587 15.1689 3.68321 15.1685 3.59754C15.1679 3.51154 15.1342 3.42954 15.0742 3.36921C10.9342 -0.683127 4.40287 -0.683127 0.263208 3.36921C0.203208 3.42921 0.169208 3.51154 0.168541 3.59721C0.167874 3.68321 0.200874 3.76587 0.259874 3.82654L1.39587 4.99687C1.51287 5.11721 1.70287 5.11887 1.82154 5.00021C3.39887 3.46854 5.49254 2.61454 7.66887 2.61454V2.61454Z" fill="black"/>
</g>
</svg>
