<svg preserveAspectRatio="none" width="100%" height="100%" overflow="visible" style="display: block;" viewBox="0 0 18 12" fill="none" xmlns="http://www.w3.org/2000/svg">
<g id="Celluar">
<path id="Cellular Connection" d="M1.50215 7.33704C1.96809 7.33704 2.20119 7.33709 2.38496 7.41321C2.62988 7.51473 2.82452 7.70928 2.92598 7.95422C3.00204 8.13797 3.00215 8.37122 3.00215 8.83704V9.83704C3.00215 10.3028 3.00208 10.5361 2.92598 10.7198C2.82444 10.9647 2.62985 11.1594 2.38496 11.2609C2.20119 11.337 1.96809 11.337 1.50215 11.337C1.03621 11.337 0.803108 11.337 0.619337 11.2609C0.37445 11.1594 0.17986 10.9647 0.0783211 10.7198C0.00221836 10.5361 0.00214922 10.3028 0.00214922 9.83704V8.83704C0.00214922 8.37122 0.0022626 8.13797 0.0783211 7.95422C0.179781 7.70928 0.374423 7.51473 0.619337 7.41321C0.803108 7.33709 1.03621 7.33704 1.50215 7.33704ZM6.16914 5.33704C6.63487 5.33704 6.86823 5.33711 7.05195 5.41321C7.29674 5.51476 7.49155 5.70937 7.59297 5.95422C7.66898 6.13795 7.66914 6.37132 7.66914 6.83704V9.83704C7.66914 10.3028 7.66907 10.5361 7.59297 10.7198C7.49148 10.9646 7.29675 11.1594 7.05195 11.2609C6.86823 11.337 6.63487 11.337 6.16914 11.337C5.70342 11.337 5.47006 11.3369 5.28633 11.2609C5.04147 11.1594 4.84687 10.9646 4.74531 10.7198C4.66921 10.5361 4.66914 10.3028 4.66914 9.83704V6.83704C4.66914 6.37112 4.66921 6.13799 4.74531 5.95422C4.84681 5.7092 5.0413 5.5147 5.28633 5.41321C5.47009 5.3371 5.70323 5.33704 6.16914 5.33704ZM10.8352 3.00305C11.3009 3.00305 11.5342 3.00321 11.718 3.07922C11.9628 3.18065 12.1574 3.37546 12.259 3.62024C12.3351 3.80397 12.3352 4.03733 12.3352 4.50305V9.83704C12.3352 10.3028 12.3351 10.5361 12.259 10.7198C12.1574 10.9646 11.9628 11.1594 11.718 11.2609C11.5342 11.3369 11.3009 11.337 10.8352 11.337C10.3694 11.337 10.1361 11.337 9.95234 11.2609C9.70755 11.1594 9.51282 10.9646 9.41133 10.7198C9.33523 10.5361 9.33516 10.3028 9.33516 9.83704V4.50305C9.33516 4.03733 9.33523 3.80397 9.41133 3.62024C9.51282 3.37544 9.70755 3.18071 9.95234 3.07922C10.1361 3.00312 10.3694 3.00305 10.8352 3.00305ZM15.5021 0.670044C15.9681 0.670044 16.2012 0.670095 16.385 0.746216C16.6299 0.847707 16.8245 1.04231 16.926 1.28723C17.0021 1.471 17.0021 1.7041 17.0021 2.17004V9.83704C17.0021 10.3028 17.0021 10.5361 16.926 10.7198C16.8244 10.9647 16.6298 11.1594 16.385 11.2609C16.2012 11.337 15.9681 11.337 15.5021 11.337C15.0362 11.337 14.8031 11.337 14.6193 11.2609C14.3745 11.1594 14.1799 10.9647 14.0783 10.7198C14.0022 10.5361 14.0021 10.3028 14.0021 9.83704V2.17004C14.0021 1.7041 14.0022 1.471 14.0783 1.28723C14.1798 1.04231 14.3744 0.847707 14.6193 0.746216C14.8031 0.670095 15.0362 0.670044 15.5021 0.670044Z" fill="black"/>
</g>
</svg>
